<svg width="64" height="64" viewBox="0 0 64 64" xmlns="http://www.w3.org/2000/svg">
  <title>
    full web
  </title>
  <g fill="none" fill-rule="evenodd">
    <path d="M15 4.995C15 2.235 17.23 0 20 0h24c2.762 0 5 2.24 5 4.995v54.01C49 61.765 46.77 64 44 64H20c-2.762 0-5-2.24-5-4.995V4.995zm1 3.996v46.02c0 1.1.896 1.99 2.002 1.99h27.996C47.11 57 48 56.11 48 55.01V8.99C48 7.89 47.104 7 45.998 7H18.002C16.89 7 16 7.89 16 8.99z" fill="#6F7D94"/>
    <rect fill="#FFF" x="17" y="10" width="30" height="44" rx="3"/>
  </g>
</svg>
