<svg width="64" height="64" viewBox="0 0 64 64" xmlns="http://www.w3.org/2000/svg">
  <title>
    one search
  </title>
  <g fill="none" fill-rule="evenodd">
    <path d="M15 4.995C15 2.235 17.23 0 20 0h24c2.762 0 5 2.24 5 4.995v54.01C49 61.765 46.77 64 44 64H20c-2.762 0-5-2.24-5-4.995V4.995zm1 3.996v46.02c0 1.1.896 1.99 2.002 1.99h27.996C47.11 57 48 56.11 48 55.01V8.99C48 7.89 47.104 7 45.998 7H18.002C16.89 7 16 7.89 16 8.99z" fill="#6F7D94"/>
    <path d="M17 35h30v20c0 .553-.447 1-.998 1H17.998c-.55 0-.998-.44-.998-1V35z" fill="#FFF"/>
    <g transform="translate(18 36)" fill="#6F7D94" opacity=".2">
      <rect width="3" height="4" rx="1"/>
      <rect x="4" width="3" height="4" rx="1"/>
      <rect x="8" width="3" height="4" rx="1"/>
      <rect x="12" width="3" height="4" rx="1"/>
      <rect x="16" width="3" height="4" rx="1"/>
      <rect x="20" width="3" height="4" rx="1"/>
      <rect x="24" width="4" height="4" rx="1"/>
      <rect x="2" y="5" width="3" height="4" rx="1"/>
      <rect x="6" y="5" width="3" height="4" rx="1"/>
      <rect x="10" y="5" width="3" height="4" rx="1"/>
      <rect x="14" y="5" width="3" height="4" rx="1"/>
      <rect x="18" y="5" width="3" height="4" rx="1"/>
      <rect x="22" y="5" width="3" height="4" rx="1"/>
      <rect y="10" width="3" height="4" rx="1"/>
      <rect x="4" y="10" width="3" height="4" rx="1"/>
      <rect x="8" y="10" width="3" height="4" rx="1"/>
      <rect x="12" y="10" width="3" height="4" rx="1"/>
      <rect x="16" y="10" width="3" height="4" rx="1"/>
      <rect x="20" y="10" width="3" height="4" rx="1"/>
      <rect x="24" y="10" width="4" height="4" rx="1"/>
      <rect y="15" width="7" height="4" rx="1"/>
      <rect x="8" y="15" width="11" height="4" rx="1"/>
      <rect x="20" y="15" width="8" height="4" rx="1"/>
    </g>
    <path fill="#FFF" d="M17 30h30v4H17z"/>
    <path fill="#6F7D94" opacity=".2" d="M17 30h30v4H17z"/>
    <path fill="#FFF" d="M17 25h30v4H17z"/>
    <path fill="#6F7D94" opacity=".4" d="M17 25h30v4H17z"/>
    <path fill="#FFF" d="M17 20h30v4H17z"/>
    <path fill="#6F7D94" opacity=".6" d="M17 20h30v4H17z"/>
    <path fill="#FFF" d="M17 15h30v4H17z"/>
    <path fill="#6F7D94" opacity=".8" d="M17 15h30v4H17z"/>
    <path fill="#FFF" d="M17 10h30v4H17z"/>
    <path fill="#6F7D94" d="M17 10h30v4H17z"/>
  </g>
</svg>
