<svg width="64" height="64" viewBox="0 0 64 64" xmlns="http://www.w3.org/2000/svg">
  <title>
    one-handed
  </title>
  <defs>
    <linearGradient x1="50%" y1="100%" x2="50%" y2="0%" id="a">
      <stop stop-color="#6F7D94" offset="0%"/>
      <stop stop-color="#6F7D94" stop-opacity="0" offset="100%"/>
    </linearGradient>
  </defs>
  <g fill="none" fill-rule="evenodd">
    <path d="M48 29V8.99C48 7.89 47.104 7 45.998 7H18.002C16.89 7 16 7.89 16 8.99V29c-.345 0-.68.044-1 .126V4.996C15 2.235 17.23 0 20 0h24c2.762 0 5 2.24 5 4.995v24.13c-.32-.08-.655-.125-1-.125zm0 8v18.01c0 1.1-.89 1.99-2.002 1.99H38.71c-.86 2.89-3.54 5-6.71 5s-5.85-2.11-6.71-5h-7.288C16.896 57 16 56.11 16 55.01V37c-.345 0-.68-.044-1-.126v22.13C15 61.76 17.238 64 20 64h24c2.77 0 5-2.236 5-4.995v-22.13c-.32.08-.655.125-1 .125z" fill="#6F7D94"/>
    <path d="M47 29.127v-16.12C47 11.34 45.657 10 44 10H20c-1.653 0-3 1.346-3 3.007v16.12c1.04.268 1.93.945 2.465 1.873H23v-1c0-.89 1.077-1.337 1.707-.707l3 3c.39.39.39 1.024 0 1.414l-3 3c-.63.63-1.707.184-1.707-.707v-1h-3.535c-.536.928-1.425 1.605-2.465 1.873v14.12C17 52.66 18.343 54 20 54h5.07c.486-3.392 3.404-6 6.93-6s6.444 2.608 6.93 6H44c1.653 0 3-1.346 3-3.007v-14.12c-1.04-.268-1.93-.945-2.465-1.873H41v1c0 .89-1.077 1.337-1.707.707l-3-3c-.39-.39-.39-1.024 0-1.414l3-3c.63-.63 1.707-.184 1.707.707v1h3.535c.536-.928 1.425-1.605 2.465-1.873z" fill="url(#a)"/>
    <path d="M32 61c-3.314 0-6-2.686-6-6s2.686-6 6-6 6 2.686 6 6-2.686 6-6 6zm0-1c2.76 0 5-2.24 5-5s-2.24-5-5-5-5 2.24-5 5 2.24 5 5 5zm0-2c-1.657 0-3-1.343-3-3s1.343-3 3-3 3 1.343 3 3-1.343 3-3 3zM24 32h-5.17c-.413-1.165-1.524-2-2.83-2-1.657 0-3 1.343-3 3s1.343 3 3 3c1.306 0 2.417-.835 2.83-2H24v2l3-3-3-3v2zM40 32h5.17c.413-1.165 1.524-2 2.83-2 1.657 0 3 1.343 3 3s-1.343 3-3 3c-1.306 0-2.417-.835-2.83-2H40v2l-3-3 3-3v2z" fill="#FFF"/>
  </g>
</svg>
